<?xml version="1.0" standalone="no"?><!DOCTYPE svg PUBLIC "-//W3C//DTD SVG 1.1//EN" "http://www.w3.org/Graphics/SVG/1.1/DTD/svg11.dtd"><svg t="1631697757568" class="icon" viewBox="0 0 1024 1024" version="1.1" xmlns="http://www.w3.org/2000/svg" p-id="3720" width="200" height="200"><path d="M127.289058 490.154459l0 43.770899c0 32.338522 27.009144 57.108672 58.774615 58.734706l233.271858 12.018731 12.005428 233.298464c1.665942 32.258705 26.396183 58.774615 58.734706 58.774615l43.770899 0c32.338522 0 57.108672-27.009144 58.734706-58.774615l12.005428-233.298464 233.351676-12.018731c31.765471-1.626034 58.774615-26.396183 58.774615-58.734706l0-43.770899c0-32.338522-26.51591-57.068763-58.774615-58.734706l-233.351676-12.005428-12.005428-233.311767c-1.626034-31.765471-26.396183-58.774615-58.734706-58.774615l-43.770899 0c-32.338522 0-57.068763 26.51591-58.734706 58.774615L419.334507 419.414325l-233.271858 12.005428C153.804968 433.085696 127.289058 457.815937 127.289058 490.154459z" p-id="3721" fill="#ffffff"></path></svg>
