<?xml version="1.0" standalone="no"?><!DOCTYPE svg PUBLIC "-//W3C//DTD SVG 1.1//EN" "http://www.w3.org/Graphics/SVG/1.1/DTD/svg11.dtd"><svg t="1631175398285" class="icon" viewBox="0 0 1024 1024" version="1.1" xmlns="http://www.w3.org/2000/svg" p-id="12918" width="48" height="48"><path d="M512 283.4432c30.6176 0 55.6032-24.4736 55.6032-54.5792S512 92.5696 512 92.5696s-55.6032 106.1888-55.6032 136.2944c0 30.208 24.8832 54.5792 55.6032 54.5792zM358.6048 288.768c26.8288 0 48.64-21.4016 48.64-47.7184 0-26.3168-48.64-119.296-48.64-119.296s-48.64 92.9792-48.64 119.296c0 26.3168 21.8112 47.7184 48.64 47.7184z m318.464 0c26.8288 0 48.64-21.4016 48.64-47.7184 0-26.3168-48.64-119.296-48.64-119.296s-48.64 92.9792-48.64 119.296c0 26.3168 21.8112 47.7184 48.64 47.7184zM647.168 663.9616c-30.208 34.4064-79.36 57.1392-135.168 57.1392s-104.96-22.6304-135.168-57.1392c-27.136 34.2016-74.4448 57.1392-128.7168 57.1392-51.8144 0-97.3824-20.7872-125.0304-52.4288v126.5664c0 75.264 62.1568 136.2944 138.8544 136.2944h500.0192c76.6976 0 138.8544-61.0304 138.8544-136.2944V668.5696c-27.648 31.6416-73.216 52.5312-125.0304 52.5312-54.1696 0-101.4784-22.9376-128.6144-57.1392z m-25.6-242.7904h-45.056V297.984H465.408v123.1872h-48.2304V312.1152H305.9712v109.056h-44.032c-8.2944 0-16.4864 0.8192-24.3712 2.1504-65.024 10.24-114.4832 60.1088-114.4832 120.5248 0 67.6864 62.1568 122.6752 138.8544 122.6752 47.104 0 88.4736-20.7872 113.664-52.4288 30.1056 31.6416 79.872 52.4288 136.3968 52.4288 56.5248 0 106.1888-20.7872 136.3968-52.4288 25.1904 31.6416 66.56 52.4288 113.664 52.4288 76.6976 0 138.8544-54.8864 138.8544-122.6752 0-60.3136-49.4592-110.2848-114.4832-120.5248-7.9872-1.4336-16.0768-2.1504-24.3712-2.1504h-29.3888V312.1152H621.568v109.056z m0 0" p-id="12919" fill="#ffffff"></path></svg>
