<?xml version="1.0" standalone="no"?><!DOCTYPE svg PUBLIC "-//W3C//DTD SVG 1.1//EN" "http://www.w3.org/Graphics/SVG/1.1/DTD/svg11.dtd"><svg t="1631175475638" class="icon" viewBox="0 0 1024 1024" version="1.1" xmlns="http://www.w3.org/2000/svg" p-id="15021" xmlns:xlink="http://www.w3.org/1999/xlink" width="48" height="48"><defs><style type="text/css"></style></defs><path d="M740.864 136.192c-114.176-9.216-201.216 47.104-251.392 120.32-24.576-60.928-104.96-96.768-174.08-96.256-102.912 1.024-220.672 76.288-229.376 217.6-10.752 187.904 122.88 231.936 200.704 354.304 45.056 70.144 69.632 165.888 69.632 165.888s61.44-22.528 151.04-63.488c-59.392-38.912-103.424-93.696-115.712-164.352-19.456-114.176 36.864-221.696 140.8-245.248 13.824-3.072 39.936-2.56 54.272-1.536 29.696 2.048 50.176 10.24 76.8 23.552 27.136-34.816 65.536-59.904 108.544-69.632 13.824-3.072 27.136-5.12 41.472-5.12 54.272 0 105.472 22.528 141.312 58.368 2.048-11.264 3.584-22.016 4.608-33.792 7.168-141.824-83.968-249.856-218.624-260.608z m73.728 291.328c-10.24 0-20.48 1.024-30.72 3.584-50.176 11.264-87.552 49.664-102.4 97.792-27.136-29.696-64.512-47.616-103.936-47.616-9.728 0-19.968 1.024-29.696 3.584-76.288 17.408-117.76 103.424-103.424 185.344 30.208 175.616 386.56 210.432 386.56 210.432s-30.72-29.696 17.408-104.96c53.76-83.968 122.88-113.664 105.984-228.864-10.24-71.68-73.216-119.296-139.776-119.296z" p-id="15022" fill="#ffffff"></path></svg>