<?xml version="1.0" standalone="no"?><!DOCTYPE svg PUBLIC "-//W3C//DTD SVG 1.1//EN" "http://www.w3.org/Graphics/SVG/1.1/DTD/svg11.dtd"><svg t="1631176906635" class="icon" viewBox="0 0 1024 1024" version="1.1" xmlns="http://www.w3.org/2000/svg" p-id="23353" width="32" height="32"><path d="M173.6192 600.4224H102.4v88.1152c0 41.2672 31.8976 74.8032 71.168 74.8032h302.7968v60.5184H369.5104c-19.6608 0-35.6352 16.6912-35.6352 37.2224 0 20.5824 15.9744 37.2224 35.6352 37.2224h284.9792c19.6608 0 35.6352-16.64 35.6352-37.2224 0-20.5312-15.9744-37.2224-35.6352-37.2224h-106.8544v-60.5184h302.7456c39.3216 0 71.2192-33.536 71.2192-74.8032v-88.064H173.6192zM850.432 102.4H173.6192C134.2976 102.4 102.4 135.9872 102.4 177.2544v348.672h819.2v-348.672C921.6 135.9872 889.7024 102.4 850.432 102.4" p-id="23354" fill="#ffffff"></path></svg>